<svg width="340" height="54" viewBox="0 0 340 54" fill="none" xmlns="http://www.w3.org/2000/svg">
<path d="M49.8833 1.4365C54.002 -1.93122 60.1834 0.999159 60.1834 6.3194V39.1853C60.1834 39.5725 60.0059 39.9385 59.7013 40.1776L42.8547 53.406C42.6325 53.5805 42.3581 53.6754 42.0756 53.6754H16.5924C15.9936 53.6753 15.7321 52.9193 16.2029 52.5491L32.0926 40.0545C32.3149 39.8797 32.5899 39.7846 32.8727 39.7846H45.0457C45.7424 39.7846 46.3069 39.2196 46.3069 38.5229V24.9685C46.3069 23.9104 45.0831 23.3226 44.2573 23.984L7.57961 53.3622C6.97699 53.8447 6.08611 53.6777 5.69933 53.0096L0.16981 43.4546C-0.140114 42.919 -0.0161393 42.2378 0.462834 41.8461L49.8833 1.4365Z" fill="#F63F18"/>
<mask id="path-2-outside-1_2066_20" maskUnits="userSpaceOnUse" x="78.3452" y="15.1733" width="262" height="23" fill="black">
<rect fill="white" x="78.3452" y="15.1733" width="262" height="23"/>
<path d="M79.3452 37.3538L88.7856 16.1733H93.6269L103.098 37.3538H97.9537L90.2077 18.6545H92.1442L84.368 37.3538H79.3452ZM84.0654 32.8151L85.3665 29.0934H96.2593L97.5906 32.8151H84.0654Z"/>
<path d="M121.035 37.3538V16.1733H130.899C133.36 16.1733 135.276 16.6474 136.648 17.5955C138.02 18.5435 138.706 19.895 138.706 21.65C138.706 23.3848 138.06 24.7363 136.769 25.7045C135.478 26.6526 133.764 27.1266 131.625 27.1266L132.2 25.8558C134.581 25.8558 136.426 26.3299 137.737 27.2779C139.049 28.226 139.704 29.5977 139.704 31.393C139.704 33.2488 138.998 34.7112 137.586 35.7804C136.194 36.8293 134.157 37.3538 131.474 37.3538H121.035ZM125.907 33.7228H131.293C132.422 33.7228 133.279 33.5009 133.864 33.0572C134.449 32.6134 134.742 31.9275 134.742 30.9996C134.742 30.1121 134.449 29.4565 133.864 29.0329C133.279 28.5891 132.422 28.3672 131.293 28.3672H125.907V33.7228ZM125.907 24.9481H130.476C131.545 24.9481 132.352 24.7363 132.896 24.3127C133.441 23.8689 133.713 23.2234 133.713 22.3762C133.713 21.529 133.441 20.8935 132.896 20.4699C132.352 20.0262 131.545 19.8043 130.476 19.8043H125.907V24.9481Z"/>
<path d="M156.319 37.3538L165.76 16.1733H170.601L180.072 37.3538H174.928L167.182 18.6545H169.118L161.342 37.3538H156.319ZM161.039 32.8151L162.341 29.0934H173.233L174.565 32.8151H161.039Z"/>
<path d="M212.533 16.1733H217.435V37.3538H212.533V16.1733ZM202.911 37.3538H198.009V16.1733H202.911V37.3538ZM212.896 28.6698H202.548V24.5245H212.896V28.6698Z"/>
<path d="M242.439 37.3538V19.0478L243.559 20.1674H235.692V16.1733H254.058V20.1674H246.191L247.28 19.0478V37.3538H242.439Z"/>
<path d="M268.811 37.3538L278.251 16.1733H283.092L292.563 37.3538H287.419L279.673 18.6545H281.61L273.833 37.3538H268.811ZM273.531 32.8151L274.832 29.0934H285.725L287.056 32.8151H273.531Z"/>
<path d="M333.342 37.3538L327.653 27.1569L331.799 24.7665L339 37.3538H333.342ZM324.053 28.8211V24.7363H330.649V28.8211H324.053ZM332.071 27.3082L327.532 26.7635L333.433 16.1733H338.607L332.071 27.3082ZM312.797 37.3538H307.139L314.34 24.7665L318.485 27.1569L312.797 37.3538ZM325.505 37.3538H320.694V16.1733H325.505V37.3538ZM322.116 28.8211H315.49V24.7363H322.116V28.8211ZM314.098 27.3082L307.532 16.1733H312.706L318.576 26.7635L314.098 27.3082Z"/>
</mask>
<path d="M79.3452 37.3538L88.7856 16.1733H93.6269L103.098 37.3538H97.9537L90.2077 18.6545H92.1442L84.368 37.3538H79.3452ZM84.0654 32.8151L85.3665 29.0934H96.2593L97.5906 32.8151H84.0654Z" fill="white"/>
<path d="M121.035 37.3538V16.1733H130.899C133.36 16.1733 135.276 16.6474 136.648 17.5955C138.02 18.5435 138.706 19.895 138.706 21.65C138.706 23.3848 138.06 24.7363 136.769 25.7045C135.478 26.6526 133.764 27.1266 131.625 27.1266L132.2 25.8558C134.581 25.8558 136.426 26.3299 137.737 27.2779C139.049 28.226 139.704 29.5977 139.704 31.393C139.704 33.2488 138.998 34.7112 137.586 35.7804C136.194 36.8293 134.157 37.3538 131.474 37.3538H121.035ZM125.907 33.7228H131.293C132.422 33.7228 133.279 33.5009 133.864 33.0572C134.449 32.6134 134.742 31.9275 134.742 30.9996C134.742 30.1121 134.449 29.4565 133.864 29.0329C133.279 28.5891 132.422 28.3672 131.293 28.3672H125.907V33.7228ZM125.907 24.9481H130.476C131.545 24.9481 132.352 24.7363 132.896 24.3127C133.441 23.8689 133.713 23.2234 133.713 22.3762C133.713 21.529 133.441 20.8935 132.896 20.4699C132.352 20.0262 131.545 19.8043 130.476 19.8043H125.907V24.9481Z" fill="white"/>
<path d="M156.319 37.3538L165.76 16.1733H170.601L180.072 37.3538H174.928L167.182 18.6545H169.118L161.342 37.3538H156.319ZM161.039 32.8151L162.341 29.0934H173.233L174.565 32.8151H161.039Z" fill="white"/>
<path d="M212.533 16.1733H217.435V37.3538H212.533V16.1733ZM202.911 37.3538H198.009V16.1733H202.911V37.3538ZM212.896 28.6698H202.548V24.5245H212.896V28.6698Z" fill="white"/>
<path d="M242.439 37.3538V19.0478L243.559 20.1674H235.692V16.1733H254.058V20.1674H246.191L247.28 19.0478V37.3538H242.439Z" fill="white"/>
<path d="M268.811 37.3538L278.251 16.1733H283.092L292.563 37.3538H287.419L279.673 18.6545H281.61L273.833 37.3538H268.811ZM273.531 32.8151L274.832 29.0934H285.725L287.056 32.8151H273.531Z" fill="white"/>
<path d="M333.342 37.3538L327.653 27.1569L331.799 24.7665L339 37.3538H333.342ZM324.053 28.8211V24.7363H330.649V28.8211H324.053ZM332.071 27.3082L327.532 26.7635L333.433 16.1733H338.607L332.071 27.3082ZM312.797 37.3538H307.139L314.34 24.7665L318.485 27.1569L312.797 37.3538ZM325.505 37.3538H320.694V16.1733H325.505V37.3538ZM322.116 28.8211H315.49V24.7363H322.116V28.8211ZM314.098 27.3082L307.532 16.1733H312.706L318.576 26.7635L314.098 27.3082Z" fill="white"/>
<path d="M79.3452 37.3538L88.7856 16.1733H93.6269L103.098 37.3538H97.9537L90.2077 18.6545H92.1442L84.368 37.3538H79.3452ZM84.0654 32.8151L85.3665 29.0934H96.2593L97.5906 32.8151H84.0654Z" stroke="white" stroke-width="0.6" mask="url(#path-2-outside-1_2066_20)"/>
<path d="M121.035 37.3538V16.1733H130.899C133.36 16.1733 135.276 16.6474 136.648 17.5955C138.02 18.5435 138.706 19.895 138.706 21.65C138.706 23.3848 138.06 24.7363 136.769 25.7045C135.478 26.6526 133.764 27.1266 131.625 27.1266L132.2 25.8558C134.581 25.8558 136.426 26.3299 137.737 27.2779C139.049 28.226 139.704 29.5977 139.704 31.393C139.704 33.2488 138.998 34.7112 137.586 35.7804C136.194 36.8293 134.157 37.3538 131.474 37.3538H121.035ZM125.907 33.7228H131.293C132.422 33.7228 133.279 33.5009 133.864 33.0572C134.449 32.6134 134.742 31.9275 134.742 30.9996C134.742 30.1121 134.449 29.4565 133.864 29.0329C133.279 28.5891 132.422 28.3672 131.293 28.3672H125.907V33.7228ZM125.907 24.9481H130.476C131.545 24.9481 132.352 24.7363 132.896 24.3127C133.441 23.8689 133.713 23.2234 133.713 22.3762C133.713 21.529 133.441 20.8935 132.896 20.4699C132.352 20.0262 131.545 19.8043 130.476 19.8043H125.907V24.9481Z" stroke="white" stroke-width="0.6" mask="url(#path-2-outside-1_2066_20)"/>
<path d="M156.319 37.3538L165.76 16.1733H170.601L180.072 37.3538H174.928L167.182 18.6545H169.118L161.342 37.3538H156.319ZM161.039 32.8151L162.341 29.0934H173.233L174.565 32.8151H161.039Z" stroke="white" stroke-width="0.6" mask="url(#path-2-outside-1_2066_20)"/>
<path d="M212.533 16.1733H217.435V37.3538H212.533V16.1733ZM202.911 37.3538H198.009V16.1733H202.911V37.3538ZM212.896 28.6698H202.548V24.5245H212.896V28.6698Z" stroke="white" stroke-width="0.6" mask="url(#path-2-outside-1_2066_20)"/>
<path d="M242.439 37.3538V19.0478L243.559 20.1674H235.692V16.1733H254.058V20.1674H246.191L247.28 19.0478V37.3538H242.439Z" stroke="white" stroke-width="0.6" mask="url(#path-2-outside-1_2066_20)"/>
<path d="M268.811 37.3538L278.251 16.1733H283.092L292.563 37.3538H287.419L279.673 18.6545H281.61L273.833 37.3538H268.811ZM273.531 32.8151L274.832 29.0934H285.725L287.056 32.8151H273.531Z" stroke="white" stroke-width="0.6" mask="url(#path-2-outside-1_2066_20)"/>
<path d="M333.342 37.3538L327.653 27.1569L331.799 24.7665L339 37.3538H333.342ZM324.053 28.8211V24.7363H330.649V28.8211H324.053ZM332.071 27.3082L327.532 26.7635L333.433 16.1733H338.607L332.071 27.3082ZM312.797 37.3538H307.139L314.34 24.7665L318.485 27.1569L312.797 37.3538ZM325.505 37.3538H320.694V16.1733H325.505V37.3538ZM322.116 28.8211H315.49V24.7363H322.116V28.8211ZM314.098 27.3082L307.532 16.1733H312.706L318.576 26.7635L314.098 27.3082Z" stroke="white" stroke-width="0.6" mask="url(#path-2-outside-1_2066_20)"/>
</svg>
